HIERARCHY
ROOT Hips
{
	OFFSET 0.000000 83.214638 0.000000
	CHANNELS 6 Xposition Yposition Zposition Xrotation Yrotation Zrotation
	JOINT Pelvis
	{
		OFFSET 0.000000 0.000000 0.000000
		CHANNELS 3 Xrotation Yrotation Zrotation
		JOINT LeftUpLeg
		{
			OFFSET 8.479700 -4.795502 -0.379100
			CHANNELS 3 Xrotation Yrotation Zrotation
			JOINT LeftLeg
			{
				OFFSET 0.024144 -32.555107 0.112900
				CHANNELS 3 Xrotation Yrotation Zrotation
				JOINT LeftFoot
				{
					OFFSET -0.024144 -32.638630 -3.012600
					CHANNELS 3 Xrotation Yrotation Zrotation
					JOINT LeftToeBase
					{
						OFFSET 0.970200 -13.225400 11.864200
						CHANNELS 3 Xrotation Yrotation Zrotation
						End Site
						{
							OFFSET 0.000000 12.319262 0.000000
						}
					}
					JOINT LFootTongue
					{
						OFFSET 1.142400 -1.059800 6.665200
						CHANNELS 3 Xrotation Yrotation Zrotation
						End Site
						{
							OFFSET 0.000000 12.319262 0.000000
						}
					}
				}
				JOINT LeftPantLeg
				{
					OFFSET 0.918482 -16.533964 -2.284700
					CHANNELS 3 Xrotation Yrotation Zrotation
					End Site
					{
						OFFSET 0.350399 24.744368 0.000000
					}
				}
			}
		}
		JOINT RightUpLeg
		{
			OFFSET -8.479700 -4.795502 -0.379100
			CHANNELS 3 Xrotation Yrotation Zrotation
			JOINT RightLeg
			{
				OFFSET -0.023144 -32.555092 0.112900
				CHANNELS 3 Xrotation Yrotation Zrotation
				JOINT RightFoot
				{
					OFFSET 0.023144 -32.638641 -3.012700
					CHANNELS 3 Xrotation Yrotation Zrotation
					JOINT RightToeBase
					{
						OFFSET -0.970200 -13.225400 11.864200
						CHANNELS 3 Xrotation Yrotation Zrotation
						End Site
						{
							OFFSET 0.000000 12.319244 0.000000
						}
					}
					JOINT RFootTongue
					{
						OFFSET -1.142200 -1.059800 6.665200
						CHANNELS 3 Xrotation Yrotation Zrotation
						End Site
						{
							OFFSET 0.000000 12.319243 0.000000
						}
					}
				}
				JOINT RightPantLeg
				{
					OFFSET -0.919482 -16.533978 -2.284800
					CHANNELS 3 Xrotation Yrotation Zrotation
					End Site
					{
						OFFSET -0.350400 24.744419 0.000000
					}
				}
			}
		}
	}
	JOINT Spine
	{
		OFFSET 0.000000 7.722000 1.166200
		CHANNELS 3 Xrotation Yrotation Zrotation
		JOINT Spine1
		{
			OFFSET 0.000000 12.024101 0.248800
			CHANNELS 3 Xrotation Yrotation Zrotation
			JOINT Spine2
			{
				OFFSET 0.000000 11.502998 -0.491200
				CHANNELS 3 Xrotation Yrotation Zrotation
				JOINT Neck
				{
					OFFSET 0.000000 18.430702 -3.123100
					CHANNELS 3 Xrotation Yrotation Zrotation
					JOINT Head
					{
						OFFSET 0.000000 9.051102 1.034000
						CHANNELS 3 Xrotation Yrotation Zrotation
						JOINT HairB
						{
							OFFSET 0.208400 24.786102 24.822300
							CHANNELS 3 Xrotation Yrotation Zrotation
							End Site
							{
								OFFSET 0.000000 32.263779 0.000000
							}
						}
						JOINT HairA
						{
							OFFSET -7.081100 24.428299 23.196600
							CHANNELS 3 Xrotation Yrotation Zrotation
							End Site
							{
								OFFSET 0.000000 32.263779 0.000000
							}
						}
						JOINT Hat
						{
							OFFSET 16.728800 15.048294 -15.439601
							CHANNELS 3 Xrotation Yrotation Zrotation
							End Site
							{
								OFFSET 0.000000 32.263779 0.000000
							}
						}
					}
				}
				JOINT LeftShoulder
				{
					OFFSET 6.197800 13.665199 -4.064700
					CHANNELS 3 Xrotation Yrotation Zrotation
					JOINT LeftArm
					{
						OFFSET 7.778100 -0.187103 -1.709300
						CHANNELS 3 Xrotation Yrotation Zrotation
						JOINT LeftForeArm
						{
							OFFSET 22.049376 0.000000 0.000000
							CHANNELS 3 Xrotation Yrotation Zrotation
							JOINT LeftHand
							{
								OFFSET 23.009392 0.000000 0.000000
								CHANNELS 3 Xrotation Yrotation Zrotation
								JOINT LeftHandThumb1
								{
									OFFSET 3.507191 -2.063065 3.133727
									CHANNELS 3 Xrotation Yrotation Zrotation
									JOINT LeftHandThumb2
									{
										OFFSET 3.101337 -1.790558 1.790558
										CHANNELS 3 Xrotation Yrotation Zrotation
										JOINT LeftHandThumb3
										{
											OFFSET 3.058640 -1.765907 1.765906
											CHANNELS 3 Xrotation Yrotation Zrotation
											End Site
											{
												OFFSET -0.415260 3.926476 -0.049563
											}
										}
									}
								}
								JOINT LeftHandIndex1
								{
									OFFSET 11.334419 -0.901459 3.706815
									CHANNELS 3 Xrotation Yrotation Zrotation
									JOINT LeftHandIndex2
									{
										OFFSET 3.283112 0.000000 0.000000
										CHANNELS 3 Xrotation Yrotation Zrotation
										JOINT LeftHandIndex3
										{
											OFFSET 3.323853 0.000000 0.000000
											CHANNELS 3 Xrotation Yrotation Zrotation
											End Site
											{
												OFFSET -1.135597 3.097809 0.402452
											}
										}
									}
								}
								JOINT LeftHandMiddle1
								{
									OFFSET 11.335861 0.000000 0.000000
									CHANNELS 3 Xrotation Yrotation Zrotation
									JOINT LeftHandMiddle2
									{
										OFFSET 3.410492 0.000000 0.000000
										CHANNELS 3 Xrotation Yrotation Zrotation
										JOINT LeftHandMiddle3
										{
											OFFSET 3.312172 0.000000 0.000000
											CHANNELS 3 Xrotation Yrotation Zrotation
											End Site
											{
												OFFSET -1.150200 3.080154 0.400270
											}
										}
									}
								}
								JOINT LeftHandRing1
								{
									OFFSET 11.514786 -0.013176 -3.003090
									CHANNELS 3 Xrotation Yrotation Zrotation
									JOINT LeftHandRing2
									{
										OFFSET 3.053307 0.000000 0.000000
										CHANNELS 3 Xrotation Yrotation Zrotation
										JOINT LeftHandRing3
										{
											OFFSET 3.295807 0.000000 0.000000
											CHANNELS 3 Xrotation Yrotation Zrotation
											End Site
											{
												OFFSET -1.281006 3.013344 0.375733
											}
										}
									}
								}
								JOINT LeftHandPinky1
								{
									OFFSET 10.518692 -0.960396 -5.730441
									CHANNELS 3 Xrotation Yrotation Zrotation
									JOINT LeftHandPinky2
									{
										OFFSET 2.861649 0.000000 0.000000
										CHANNELS 3 Xrotation Yrotation Zrotation
										JOINT LeftHandPinky3
										{
											OFFSET 2.863380 0.000000 0.000000
											CHANNELS 3 Xrotation Yrotation Zrotation
											End Site
											{
												OFFSET -0.843597 2.711159 0.369971
											}
										}
									}
								}
							}
							JOINT LSleeve
							{
								OFFSET 6.676277 -0.344902 -1.011730
								CHANNELS 3 Xrotation Yrotation Zrotation
								End Site
								{
									OFFSET 0.000000 14.885353 0.000000
								}
							}
						}
					}
				}
				JOINT RightShoulder
				{
					OFFSET -6.197800 13.665199 -4.064700
					CHANNELS 3 Xrotation Yrotation Zrotation
					JOINT RightArm
					{
						OFFSET -7.778100 -0.187103 -1.709300
						CHANNELS 3 Xrotation Yrotation Zrotation
						JOINT RightForeArm
						{
							OFFSET -22.049376 0.000000 0.000000
							CHANNELS 3 Xrotation Yrotation Zrotation
							JOINT RightHand
							{
								OFFSET -23.009392 0.000000 0.000000
								CHANNELS 3 Xrotation Yrotation Zrotation
								JOINT RightHandThumb1
								{
									OFFSET -3.507191 -2.063065 3.133727
									CHANNELS 3 Xrotation Yrotation Zrotation
									JOINT RightHandThumb2
									{
										OFFSET -3.101337 -1.790558 1.790558
										CHANNELS 3 Xrotation Yrotation Zrotation
										JOINT RightHandThumb3
										{
											OFFSET -3.058640 -1.765907 1.765906
											CHANNELS 3 Xrotation Yrotation Zrotation
											End Site
											{
												OFFSET 0.415260 3.926476 -0.049563
											}
										}
									}
								}
								JOINT RightHandIndex1
								{
									OFFSET -11.334419 -0.901459 3.706815
									CHANNELS 3 Xrotation Yrotation Zrotation
									JOINT RightHandIndex2
									{
										OFFSET -3.283112 0.000000 0.000000
										CHANNELS 3 Xrotation Yrotation Zrotation
										JOINT RightHandIndex3
										{
											OFFSET -3.323853 0.000000 0.000000
											CHANNELS 3 Xrotation Yrotation Zrotation
											End Site
											{
												OFFSET 1.135597 3.097809 0.402452
											}
										}
									}
								}
								JOINT RightHandMiddle1
								{
									OFFSET -11.335861 0.000000 0.000000
									CHANNELS 3 Xrotation Yrotation Zrotation
									JOINT RightHandMiddle2
									{
										OFFSET -3.410492 0.000000 0.000000
										CHANNELS 3 Xrotation Yrotation Zrotation
										JOINT RightHandMiddle3
										{
											OFFSET -3.312172 0.000000 0.000000
											CHANNELS 3 Xrotation Yrotation Zrotation
											End Site
											{
												OFFSET 1.150200 3.080154 0.400270
											}
										}
									}
								}
								JOINT RightHandRing1
								{
									OFFSET -11.514786 -0.013176 -3.003090
									CHANNELS 3 Xrotation Yrotation Zrotation
									JOINT RightHandRing2
									{
										OFFSET -3.053307 0.000000 0.000000
										CHANNELS 3 Xrotation Yrotation Zrotation
										JOINT RightHandRing3
										{
											OFFSET -3.295807 0.000000 0.000000
											CHANNELS 3 Xrotation Yrotation Zrotation
											End Site
											{
												OFFSET 1.281006 3.013344 0.375733
											}
										}
									}
								}
								JOINT RightHandPinky1
								{
									OFFSET -10.518692 -0.960396 -5.730441
									CHANNELS 3 Xrotation Yrotation Zrotation
									JOINT RightHandPinky2
									{
										OFFSET -2.861649 0.000000 0.000000
										CHANNELS 3 Xrotation Yrotation Zrotation
										JOINT RightHandPinky3
										{
											OFFSET -2.863380 0.000000 0.000000
											CHANNELS 3 Xrotation Yrotation Zrotation
											End Site
											{
												OFFSET 0.843597 2.711159 0.369971
											}
										}
									}
								}
							}
							JOINT RSleeve
							{
								OFFSET -6.676277 -0.344902 -1.011730
								CHANNELS 3 Xrotation Yrotation Zrotation
								End Site
								{
									OFFSET 0.000000 14.885353 0.000000
								}
							}
						}
					}
				}
				JOINT Backpack
				{
					OFFSET 0.000000 -2.471497 36.677502
					CHANNELS 3 Xrotation Yrotation Zrotation
					End Site
					{
						OFFSET 0.000000 20.427315 0.000000
					}
				}
				JOINT Hood
				{
					OFFSET 0.000000 18.754097 -10.431000
					CHANNELS 3 Xrotation Yrotation Zrotation
					JOINT Hood1
					{
						OFFSET 0.000000 -5.011002 -7.685901
						CHANNELS 3 Xrotation Yrotation Zrotation
						End Site
						{
							OFFSET 0.000000 9.175140 0.000000
						}
					}
				}
				JOINT LHoodieString
				{
					OFFSET 5.250500 16.397697 3.089900
					CHANNELS 3 Xrotation Yrotation Zrotation
					JOINT LHoodieString1
					{
						OFFSET 0.257700 -6.364304 3.694600
						CHANNELS 3 Xrotation Yrotation Zrotation
						JOINT LHoodieString2
						{
							OFFSET 0.000000 -9.643799 2.679100
							CHANNELS 3 Xrotation Yrotation Zrotation
							End Site
							{
								OFFSET 0.000000 10.009018 0.000000
							}
						}
					}
				}
				JOINT RHoodieString
				{
					OFFSET -5.250500 16.397697 3.089900
					CHANNELS 3 Xrotation Yrotation Zrotation
					JOINT RHoodieString1
					{
						OFFSET -0.257700 -6.364304 3.694600
						CHANNELS 3 Xrotation Yrotation Zrotation
						JOINT RHoodieString2
						{
							OFFSET 0.000000 -9.643799 2.679100
							CHANNELS 3 Xrotation Yrotation Zrotation
							End Site
							{
								OFFSET 0.000000 10.009018 0.000000
							}
						}
					}
				}
			}
			JOINT LBackpack_Strap
			{
				OFFSET 15.223200 -7.719803 -6.610900
				CHANNELS 3 Xrotation Yrotation Zrotation
				End Site
				{
					OFFSET 0.000000 16.040596 0.000000
				}
			}
			JOINT RBackpack_Strap
			{
				OFFSET -15.223000 -7.719803 -6.610900
				CHANNELS 3 Xrotation Yrotation Zrotation
				End Site
				{
					OFFSET 0.000000 16.040596 0.000000
				}
			}
		}
	}
	JOINT BoyFacialAnim_Joint
	{
		OFFSET 1.000000 -82.208099 -1.550900
		CHANNELS 3 Xrotation Yrotation Zrotation
		End Site
		{
			OFFSET 0.000000 30.012791 0.000000
		}
	}
}
MOTION
Frames: 4
Frame Time: 0.033333
0.173314 5.837547 -6.427292 -82.508535 1.522516 -1.526744 -0.000000 -0.000000 -0.000000 -20.090795 9.869368 10.516210 11.964489 -6.065282 -1.100015 5.792261 45.643835 -15.968893 0.000000 -0.000004 0.000000 0.000000 -0.000004 0.000000 0.000000 -0.000002 -0.000000 -9.261472 -8.080638 -9.161912 -5.469213 8.294065 0.814315 19.480014 -44.066700 32.423273 0.000001 -0.000001 -0.000001 0.000001 -0.000001 -0.000001 -0.000000 -0.000000 -0.000000 4.026189 0.122928 0.561148 8.051853 0.241335 0.929255 8.051827 0.241336 0.929254 25.106720 0.002695 4.009395 8.989819 1.397072 -7.644468 -0.000000 0.000000 -0.000000 -0.000000 0.000000 -0.000000 -0.000000 0.000000 -0.000000 0.626459 -5.233267 0.797176 36.975127 -7.751076 -48.722717 -0.085519 -57.210795 0.075728 44.590996 -1.275867 0.804443 -9.230587 -3.692004 12.963564 1.586687 4.678905 2.028232 0.000000 -0.000001 0.000001 -0.034247 -1.648172 -4.483422 0.047827 0.708893 -13.316240 -0.000002 0.000000 -0.000003 0.632595 6.278201 -7.086775 -0.085313 -0.351013 -10.464967 0.000001 -0.000000 -0.000001 0.028463 8.262778 -6.292704 -0.287891 -2.189874 -19.928163 -0.000000 -0.000001 -0.000006 -0.119925 14.640575 -1.153866 -0.680072 -5.836219 -26.148737 0.000000 0.000002 -0.000002 0.000000 0.000000 0.000001 0.734719 6.832366 -3.280887 45.206396 5.260250 48.422066 -0.086331 63.133057 -0.080715 37.132153 -0.256629 -1.696713 -8.137384 6.241859 -11.657776 2.055474 -3.813474 -1.488635 -0.000000 -0.000000 0.000000 -1.072708 1.235215 5.101462 0.126867 -1.152807 17.793690 -0.000001 -0.000000 0.000002 -1.051468 -0.947497 3.697556 -0.124309 0.396002 14.609298 0.000001 -0.000000 0.000001 1.692211 -12.129283 5.067370 -0.393294 2.667764 20.658698 -0.000000 -0.000001 0.000002 2.312889 -16.805375 1.614843 -1.480501 8.191832 32.186860 0.000000 -0.000001 -0.000002 -0.000003 -0.000001 -0.000001 -0.000000 0.000000 -0.000000 -0.000000 0.000000 -0.000000 -0.000000 0.000000 -0.000000 -0.000000 0.000000 -0.000000 -0.000000 0.000000 -0.000000 -0.000002 -0.000000 -0.000000 -0.000000 0.000000 -0.000000 -0.000000 0.000000 -0.000000 -0.000002 -0.000000 -0.000000 0.000001 -0.000000 -0.000000 0.000001 -0.000000 -0.000000 -0.000000 -0.000000 -0.000000 
0.174369 5.837166 -6.427124 -82.506930 1.529196 -1.524215 0.000001 0.000000 -0.000000 -20.102654 9.874826 10.510874 11.984407 -6.064060 -1.100509 5.751984 45.605282 -15.946152 0.000000 -0.000002 -0.000001 0.000000 -0.000002 -0.000001 -0.000000 -0.000001 -0.000001 -9.226185 -8.087948 -9.162299 -5.540510 8.287991 0.813799 19.512092 -44.047518 32.433792 -0.000000 0.000000 -0.000001 -0.000000 0.000000 -0.000001 -0.000000 -0.000000 0.000001 4.025851 0.118504 0.562945 8.051123 0.232672 0.933487 8.051149 0.232671 0.933487 25.004764 0.005471 3.967516 9.113600 1.387739 -7.613964 0.000000 0.000000 -0.000000 0.000000 0.000000 -0.000000 0.000000 0.000000 -0.000000 0.625256 -5.203595 0.770434 36.976127 -7.750240 -48.700249 -0.085473 -57.206342 0.075796 44.584722 -1.284559 0.807991 -9.213746 -3.731953 12.936253 1.551147 4.730195 2.041959 -0.000000 -0.000002 -0.000002 -0.047842 -1.653312 -4.582986 0.047794 0.708862 -13.313672 -0.000001 -0.000000 -0.000004 0.637929 6.292201 -7.160995 -0.085290 -0.350720 -10.461084 0.000001 0.000000 -0.000003 0.033406 8.271309 -6.352912 -0.287898 -2.189864 -19.928238 0.000001 -0.000002 -0.000001 -0.108940 14.636428 -1.214430 -0.680661 -5.836713 -26.154748 0.000001 0.000002 0.000000 0.000001 -0.000000 -0.000001 0.734951 6.826223 -3.301644 45.202387 5.277205 48.421636 -0.086266 63.138562 -0.080835 37.138484 -0.259586 -1.695865 -8.134571 6.216550 -11.664989 2.058340 -3.810146 -1.486235 0.000002 0.000000 0.000001 -1.071895 1.232668 5.095986 0.127565 -1.154046 17.827371 -0.000001 0.000000 0.000004 -1.051447 -0.940802 3.681806 -0.124318 0.396114 14.610789 0.000001 0.000001 -0.000000 1.694926 -12.132934 5.079968 -0.393221 2.667622 20.657398 -0.000000 0.000001 0.000001 2.319990 -16.800565 1.631160 -1.482913 8.193975 32.204571 0.000001 -0.000000 -0.000003 0.000000 -0.000000 -0.000001 -0.000001 0.000000 -0.000000 -0.000001 0.000000 -0.000000 -0.000001 0.000000 -0.000000 -0.000001 0.000000 -0.000000 -0.000001 0.000000 -0.000000 -0.000001 0.000000 -0.000000 -0.000001 0.000000 -0.000000 -0.000001 0.000000 -0.000000 -0.000001 0.000000 -0.000000 -0.000001 -0.000000 0.000000 -0.000001 -0.000000 0.000000 0.000001 0.000000 -0.000000 
0.175152 5.836853 -6.426949 -82.506418 1.535599 -1.523331 -0.000000 0.000000 0.000000 -20.110828 9.877154 10.507927 11.998332 -6.063164 -1.100867 5.726416 45.579662 -15.931976 -0.000000 -0.000000 -0.000000 -0.000000 -0.000000 -0.000000 -0.000000 -0.000001 0.000000 -9.221024 -8.090702 -9.165429 -5.540217 8.283642 0.812905 19.495170 -44.047712 32.450785 -0.000000 -0.000002 -0.000000 -0.000000 -0.000002 -0.000000 0.000000 -0.000000 0.000001 4.023980 0.114749 0.565670 8.047343 0.225313 0.939075 8.047349 0.225312 0.939075 24.908011 0.009035 3.920073 9.228360 1.378345 -7.577794 0.000003 0.000000 -0.000000 0.000003 0.000000 -0.000000 0.000003 0.000000 -0.000000 0.623519 -5.163117 0.721045 36.989146 -7.739246 -48.650194 -0.085366 -57.218680 0.075856 44.580990 -1.288179 0.808181 -9.272483 -3.734308 12.959475 1.572571 4.699256 2.033677 0.000000 -0.000001 0.000002 -0.046083 -1.641519 -4.575811 0.047945 0.709045 -13.325585 -0.000000 0.000000 -0.000002 0.635677 6.283448 -7.135895 -0.085176 -0.349255 -10.442873 0.000000 -0.000001 0.000002 0.030918 8.266779 -6.322645 -0.287094 -2.188210 -19.907070 -0.000001 0.000000 -0.000002 -0.110426 14.616957 -1.197197 -0.678877 -5.835118 -26.136774 0.000000 0.000000 -0.000000 0.000002 -0.000000 0.000001 0.735112 6.810694 -3.334626 45.202492 5.311842 48.424948 -0.086344 63.137797 -0.080866 37.149221 -0.262741 -1.700431 -8.180495 6.221757 -11.673015 2.068491 -3.798241 -1.477860 -0.000001 0.000001 -0.000000 -1.070829 1.224709 5.092810 0.128118 -1.154997 17.854033 -0.000000 0.000000 0.000005 -1.050708 -0.944794 3.660865 -0.124327 0.396181 14.612232 -0.000000 0.000000 -0.000000 1.696748 -12.132765 5.088207 -0.393411 2.668024 20.661373 -0.000000 0.000001 0.000001 2.327450 -16.785747 1.644600 -1.480196 8.191585 32.184835 -0.000000 0.000002 -0.000001 0.000001 0.000000 0.000000 -0.000003 0.000000 -0.000000 -0.000003 0.000000 -0.000000 -0.000003 0.000000 -0.000000 -0.000003 0.000000 -0.000000 -0.000003 0.000000 -0.000000 -0.000003 0.000000 -0.000000 -0.000003 0.000000 -0.000000 -0.000003 0.000000 -0.000000 -0.000003 0.000000 -0.000000 0.000002 0.000000 -0.000000 0.000002 0.000000 -0.000000 -0.000000 0.000000 0.000000 
0.175595 5.836525 -6.426743 -82.506090 1.539975 -1.521742 -0.000000 0.000000 0.000000 -20.113229 9.877952 10.504881 12.001583 -6.062370 -1.100908 5.718824 45.569257 -15.927422 -0.000000 0.000002 -0.000001 -0.000000 0.000002 -0.000000 -0.000000 -0.000000 -0.000000 -9.217763 -8.092910 -9.168052 -5.540328 8.280598 0.812281 19.482203 -44.043911 32.460850 -0.000001 0.000002 -0.000000 -0.000001 0.000002 -0.000000 -0.000000 -0.000000 0.000000 4.019468 0.112572 0.567476 8.038397 0.221065 0.942861 8.038414 0.221065 0.942861 24.827437 0.013653 3.872930 9.323728 1.370687 -7.541429 0.000001 0.000000 0.000000 0.000001 0.000000 0.000000 0.000001 0.000000 0.000000 0.622284 -5.134718 0.680718 37.012894 -7.727761 -48.609374 -0.085274 -57.232238 0.075961 44.577482 -1.289454 0.791929 -9.313756 -3.746730 12.959930 1.597780 4.662921 2.023952 -0.000001 0.000001 0.000002 -0.035018 -1.633935 -4.496616 0.047835 0.708919 -13.316668 -0.000001 -0.000000 0.000002 0.631544 6.274243 -7.074783 -0.085235 -0.349955 -10.451881 0.000001 0.000000 -0.000001 0.030208 8.263577 -6.315586 -0.286755 -2.187532 -19.898132 -0.000000 0.000001 -0.000002 -0.120534 14.585319 -1.125387 -0.679925 -5.836050 -26.147245 -0.000000 0.000000 -0.000000 -0.000000 -0.000001 -0.000000 0.735230 6.795680 -3.363182 45.210252 5.338825 48.436003 -0.086330 63.134922 -0.080980 37.170347 -0.262055 -1.710657 -8.216531 6.224594 -11.676608 2.069029 -3.797781 -1.477365 0.000001 0.000001 0.000001 -1.071438 1.213723 5.108689 0.127960 -1.154710 17.846562 0.000000 -0.000000 0.000003 -1.052173 -0.946230 3.699010 -0.124327 0.396156 14.611790 0.000001 0.000001 -0.000000 1.697470 -12.128422 5.092514 -0.393899 2.669092 20.671764 -0.000001 0.000000 0.000002 2.335315 -16.768381 1.657662 -1.476105 8.187992 32.154963 -0.000000 0.000000 -0.000001 -0.000000 -0.000000 -0.000001 0.000000 -0.000000 -0.000000 0.000000 -0.000000 -0.000000 0.000000 -0.000000 -0.000000 0.000000 -0.000000 -0.000000 0.000000 -0.000000 -0.000000 0.000000 -0.000000 -0.000000 0.000000 -0.000000 -0.000000 0.000000 -0.000000 -0.000000 0.000000 -0.000000 -0.000000 -0.000000 0.000000 -0.000000 -0.000000 0.000000 -0.000000 -0.000000 0.000000 0.000000 
